<?xml version="1.0" encoding="utf-8"?>
<!DOCTYPE svg PUBLIC "-//W3C//DTD SVG 20010904//EN" "http://www.w3.org/TR/2001/REC-SVG-20010904/DTD/svg10.dtd">
<svg version="1.0" xmlns="http://www.w3.org/2000/svg" width="194pt" height="194pt" viewBox="0 0 194 194" style="" preserveAspectRatio="xMidYMid meet">
<g fill="#E4668CFF" stroke="#E4668CFF">
<path d="M 44.398 11.889 C 29.351 16.197 15.837 28.413 8.463 44.374 C 4.308 53.366 1.118 69.770 2.805 73.471 C 3.388 74.751 3.618 76.746 3.315 77.905 C 3.012 79.063 3.306 80.664 3.968 81.462 C 4.630 82.259 4.882 83.382 4.527 83.956 C 4.172 84.530 4.411 85.000 5.058 85.000 C 5.741 85.000 6.014 85.837 5.711 86.999 C 5.423 88.098 5.603 89.255 6.110 89.568 C 6.618 89.882 6.774 90.557 6.457 91.069 C 6.141 91.581 6.407 92.000 7.048 92.000 C 7.691 92.000 7.947 92.696 7.618 93.552 C 7.277 94.442 7.445 94.843 8.011 94.493 C 8.555 94.157 9.000 94.383 9.000 94.996 C 9.000 95.608 9.918 98.124 11.039 100.587 C 12.161 103.049 12.767 105.569 12.385 106.186 C 11.987 106.831 12.138 107.033 12.741 106.660 C 14.001 105.881 15.281 108.736 14.349 110.245 C 13.987 110.830 14.130 111.037 14.668 110.705 C 15.205 110.374 17.382 113.117 19.507 116.801 C 21.632 120.485 24.749 125.130 26.435 127.122 C 28.121 129.115 31.154 133.063 33.175 135.897 C 38.133 142.849 46.480 152.185 58.478 164.197 C 67.674 173.404 68.704 174.147 71.610 173.676 C 74.203 173.255 94.282 161.236 96.000 159.077 C 96.275 158.731 98.525 156.907 101.000 155.023 C 118.989 141.332 140.723 120.267 151.067 106.500 C 158.135 97.093 165.000 86.520 165.000 85.043 C 165.000 84.469 165.413 84.000 165.918 84.000 C 167.849 84.000 171.457 76.307 173.618 67.585 C 174.855 62.588 175.898 59.554 175.934 60.842 C 175.999 63.150 180.000 69.342 180.000 67.135 C 180.000 66.511 180.900 66.000 182.000 66.000 C 183.100 66.000 184.000 65.519 184.000 64.930 C 184.000 64.342 185.013 64.005 186.250 64.180 C 188.000 64.429 188.433 65.056 188.198 67.000 L 187.896 69.500 189.380 66.767 C 190.208 65.242 190.461 63.785 189.952 63.471 C 189.433 63.150 189.570 62.053 190.270 60.923 C 191.072 59.630 191.152 58.688 190.500 58.219 C 189.950 57.824 189.397 55.932 189.272 54.016 C 188.877 47.986 183.187 38.028 176.079 30.927 C 170.623 25.477 167.366 23.313 157.000 18.252 C 142.137 10.995 136.424 9.527 126.110 10.315 C 115.895 11.095 112.747 12.142 102.991 18.005 C 98.420 20.752 94.140 23.000 93.480 23.000 C 92.819 23.000 87.421 20.726 81.485 17.947 C 63.992 9.758 56.257 8.494 44.398 11.889 M 143.162 47.614 C 146.783 49.445 150.000 53.743 150.000 56.749 C 150.000 62.766 141.553 71.953 138.671 69.071 C 137.872 68.272 137.938 67.088 138.911 64.736 C 139.648 62.956 140.468 60.045 140.733 58.266 C 141.149 55.475 140.849 54.893 138.542 54.016 C 132.326 51.652 123.009 53.717 119.691 58.193 C 117.791 60.757 117.776 61.010 119.396 63.482 C 120.332 64.910 122.538 66.699 124.299 67.458 C 144.661 76.226 147.499 78.660 146.688 86.659 C 146.107 92.388 142.935 96.396 136.481 99.553 C 125.828 104.765 112.624 103.824 106.194 97.394 L 102.766 93.966 98.239 96.965 C 95.750 98.614 92.124 100.261 90.182 100.626 C 87.258 101.174 86.338 100.900 84.826 99.033 C 83.822 97.793 83.000 95.688 83.000 94.354 C 83.000 92.035 82.864 92.085 79.852 95.516 C 75.788 100.145 72.102 102.000 66.973 102.000 C 63.714 102.000 62.210 101.364 59.822 98.975 L 56.797 95.951 52.921 99.453 C 47.822 104.059 42.941 106.000 36.455 106.000 C 31.878 106.000 30.737 105.583 28.101 102.947 C 20.739 95.585 21.947 81.108 31.115 66.820 C 38.908 54.677 53.006 52.206 55.597 62.529 C 57.834 71.444 48.837 83.957 40.986 82.850 C 39.126 82.588 38.420 81.808 38.184 79.750 C 37.898 77.266 38.171 77.000 41.011 77.000 C 47.355 77.000 52.855 67.255 48.800 63.200 C 42.989 57.389 31.305 73.002 30.231 88.016 C 29.779 94.338 29.931 95.022 32.326 97.417 C 33.747 98.838 35.844 100.000 36.987 100.000 C 40.192 100.000 45.848 97.331 51.050 93.364 C 55.180 90.214 55.906 89.091 56.850 84.391 C 59.228 72.551 69.044 58.973 78.392 54.595 C 83.287 52.302 90.000 51.303 90.000 52.868 C 90.000 53.491 91.135 54.000 92.521 54.000 C 98.021 54.000 97.990 61.524 92.417 79.000 C 90.212 85.914 89.259 93.000 90.533 93.000 C 90.827 93.000 93.287 91.875 96.000 90.500 C 101.874 87.524 101.733 87.540 102.311 89.750 C 102.645 91.030 102.799 90.879 102.884 89.184 C 103.043 86.018 104.645 83.260 107.087 81.954 C 110.282 80.243 111.842 82.225 111.273 87.271 C 110.620 93.060 113.073 95.246 120.787 95.754 C 127.531 96.198 134.548 93.196 136.944 88.843 C 139.606 84.006 137.441 81.676 124.548 75.502 C 111.708 69.353 109.293 66.747 110.357 60.189 C 112.115 49.355 131.735 41.834 143.162 47.614 M 66.770 13.615 C 75.463 16.422 88.902 28.498 86.267 31.133 C 85.460 31.940 83.550 30.607 79.188 26.191 C 71.901 18.812 65.486 15.431 55.273 13.585 L 47.500 12.179 54.635 12.090 C 58.720 12.038 63.907 12.690 66.770 13.615 M 156.500 24.500 L 155.000 23.000 156.500 24.500 L 158.000 26.000 156.500 24.500 "/></g>
<g fill="#C93652FF" stroke="#C93652FF">
<path d="M 173.985 67.767 C 172.540 74.015 167.989 87.010 165.845 91.009 C 164.156 94.161 158.750 101.389 157.750 101.833 C 157.338 102.017 157.000 102.639 157.000 103.217 C 157.000 103.795 154.756 106.476 152.014 109.175 C 149.272 111.875 147.134 114.607 147.264 115.246 C 147.394 115.886 146.838 116.430 146.030 116.455 C 145.221 116.480 144.056 117.510 143.440 118.744 C 142.825 119.978 142.061 120.727 141.742 120.408 C 141.423 120.090 140.604 120.880 139.922 122.164 C 139.240 123.449 137.854 125.088 136.841 125.807 C 135.829 126.525 135.000 127.789 135.000 128.616 C 135.000 129.442 134.530 129.828 133.956 129.473 C 132.588 128.627 129.839 130.930 130.650 132.243 C 130.996 132.802 130.731 133.077 130.063 132.854 C 129.394 132.631 126.396 134.823 123.401 137.725 C 120.405 140.626 117.757 143.000 117.516 143.000 C 117.275 143.000 115.265 144.830 113.051 147.067 C 110.837 149.303 108.569 150.852 108.012 150.508 C 107.456 150.164 107.000 150.562 107.000 151.394 C 107.000 152.226 105.356 153.686 103.347 154.640 C 101.337 155.593 98.202 157.864 96.380 159.687 C 94.558 161.509 92.627 163.000 92.090 163.000 C 91.553 163.000 90.449 163.949 89.637 165.108 C 88.824 166.268 87.712 166.940 87.165 166.602 C 86.618 166.264 86.012 166.465 85.817 167.048 C 85.623 167.632 84.572 168.240 83.482 168.400 C 82.392 168.560 81.500 169.201 81.500 169.826 C 81.500 171.386 74.159 175.000 70.990 175.000 C 69.019 175.000 66.036 172.548 58.452 164.692 C 43.039 148.726 39.999 145.270 31.458 133.995 C 21.472 120.812 19.261 117.387 14.509 107.740 C 12.406 103.472 10.493 100.174 10.256 100.411 C 9.529 101.137 17.901 117.019 23.744 126.000 C 32.848 139.992 43.336 153.043 56.273 166.479 C 68.285 178.953 68.620 179.209 75.333 181.048 C 79.092 182.077 84.734 183.210 87.872 183.565 L 93.578 184.211 104.039 177.190 C 116.751 168.658 135.267 153.920 147.756 142.392 C 163.499 127.861 180.342 105.885 185.540 93.094 C 188.229 86.475 191.303 71.222 190.752 67.229 L 190.376 64.500 189.197 67.000 L 188.018 69.500 188.259 67.000 C 188.444 65.078 187.980 64.426 186.250 64.180 C 185.013 64.005 184.000 64.342 184.000 64.930 C 184.000 65.519 183.100 66.000 182.000 66.000 C 180.900 66.000 180.000 66.537 180.000 67.194 C 180.000 67.851 178.945 66.959 177.656 65.211 L 175.311 62.034 173.985 67.767 "/></g>
<g fill="#FAE5EBFF" stroke="#FAE5EBFF">
<path d="M 83.000 53.359 C 77.448 55.376 74.524 57.209 69.858 61.600 C 63.093 67.964 58.287 76.923 57.304 85.000 C 56.831 88.886 56.124 89.993 52.128 93.109 C 45.727 98.100 41.707 100.000 37.550 100.000 C 30.459 100.000 27.719 93.548 30.387 83.136 C 34.281 67.937 43.697 57.697 48.949 62.949 C 51.374 65.374 51.487 66.900 49.579 71.466 C 48.012 75.215 42.961 78.440 40.085 77.527 C 38.696 77.086 38.298 77.459 38.385 79.117 C 38.683 84.738 46.385 83.361 51.277 76.814 C 56.725 69.521 57.092 61.794 52.173 57.917 C 46.601 53.524 35.985 58.593 30.565 68.232 C 20.298 86.492 22.493 105.107 34.999 105.845 C 40.131 106.148 46.811 104.151 50.000 101.360 C 51.375 100.157 53.595 98.297 54.934 97.228 L 57.368 95.284 59.744 98.108 C 64.831 104.153 74.923 102.064 80.638 93.783 L 83.500 89.637 83.774 92.569 C 84.417 99.438 84.799 100.000 88.823 100.000 C 94.002 100.000 102.000 94.955 102.000 91.689 C 102.000 90.393 101.741 89.074 101.424 88.757 C 100.789 88.122 94.699 91.053 94.167 92.250 C 93.601 93.523 89.967 93.077 89.426 91.669 C 88.843 90.148 90.374 82.656 92.141 78.381 C 92.796 76.797 93.383 75.275 93.446 75.000 C 96.491 61.559 96.639 56.230 94.000 55.006 C 93.175 54.624 91.494 53.791 90.264 53.155 C 87.557 51.757 87.398 51.761 83.000 53.359 M 89.462 60.250 C 89.078 62.038 88.493 63.950 88.161 64.500 C 87.829 65.050 87.418 66.399 87.247 67.498 C 87.076 68.598 86.012 72.648 84.881 76.498 C 81.065 89.493 75.864 95.758 69.035 95.587 C 62.044 95.412 61.476 86.806 67.644 74.525 C 72.758 64.345 81.215 57.003 87.829 57.001 C 89.934 57.000 90.092 57.314 89.462 60.250 "/></g>
<g fill="#FAE5EBFF" stroke="#FAE5EBFF">
<path d="M 132.763 45.571 C 132.539 45.795 131.038 46.129 129.428 46.314 C 122.633 47.093 112.189 53.761 111.123 58.000 C 110.283 61.341 110.758 64.981 112.351 67.413 C 113.763 69.568 122.180 74.803 124.743 75.121 C 126.453 75.333 133.655 79.367 135.750 81.287 C 138.161 83.496 138.638 86.939 136.967 90.062 C 135.474 92.852 128.826 95.939 123.818 96.170 C 113.609 96.639 109.490 93.582 110.576 86.343 C 111.163 82.425 111.027 82.000 109.186 82.000 C 106.809 82.000 103.000 86.413 103.000 89.167 C 103.000 93.908 105.901 98.068 110.716 100.235 C 127.672 107.866 151.402 95.341 145.667 81.787 C 143.671 77.071 141.343 75.352 130.839 70.836 C 125.702 68.628 120.713 66.117 119.750 65.256 C 116.138 62.024 118.627 56.233 124.605 53.960 C 129.096 52.253 138.482 52.771 140.345 54.829 C 142.489 57.198 142.437 58.048 139.811 63.451 C 137.338 68.543 137.825 69.799 141.739 68.423 C 147.343 66.452 150.786 57.206 147.914 51.840 C 146.384 48.981 134.337 43.996 132.763 45.571 "/></g>
<g fill="#E4668CFF" stroke="#E4668CFF">
<path d="M 80.439 59.874 C 72.728 64.576 65.147 77.283 64.268 86.979 C 63.857 91.516 64.105 92.962 65.542 94.399 C 69.190 98.047 76.971 93.813 80.979 86.000 C 82.631 82.778 89.000 61.354 89.000 59.016 C 89.000 57.344 83.721 57.873 80.439 59.874 "/></g>
<g fill="#F1ADC1FF" stroke="#F1ADC1FF">
<path d="M 121.500 11.925 C 119.175 12.459 120.188 12.742 126.000 13.185 C 134.955 13.867 141.315 15.947 148.503 20.545 C 156.581 25.712 160.778 31.596 167.375 47.000 C 167.728 47.825 167.814 46.173 167.565 43.328 C 165.817 23.348 142.120 7.193 121.500 11.925 M 156.500 24.500 L 155.000 23.000 156.500 24.500 L 158.000 26.000 156.500 24.500 "/></g>
<g fill="#E34078FF" stroke="#E34078FF">
<path d="M 170.000 78.687 C 170.000 79.249 168.988 80.816 167.750 82.170 C 165.544 84.584 160.567 92.885 161.186 93.118 C 161.359 93.184 161.172 93.187 160.772 93.126 C 160.371 93.065 159.335 94.385 158.469 96.060 C 156.016 100.803 144.893 114.690 136.560 123.413 C 129.169 131.149 127.914 133.000 130.059 133.000 C 130.641 133.000 130.871 132.601 130.570 132.113 C 129.817 130.895 132.665 128.675 133.956 129.473 C 134.530 129.828 135.000 129.442 135.000 128.616 C 135.000 127.789 135.829 126.525 136.841 125.807 C 137.854 125.088 139.240 123.449 139.922 122.164 C 140.604 120.880 141.423 120.090 141.742 120.408 C 142.061 120.727 142.825 119.978 143.440 118.744 C 144.056 117.510 145.221 116.480 146.030 116.455 C 146.838 116.430 147.394 115.886 147.264 115.246 C 147.134 114.607 149.272 111.875 152.014 109.175 C 154.756 106.476 157.000 103.795 157.000 103.217 C 157.000 102.639 157.338 102.017 157.750 101.833 C 158.757 101.386 164.169 94.141 165.835 91.009 C 168.008 86.927 170.991 78.657 170.476 78.143 C 170.214 77.881 170.000 78.126 170.000 78.687 "/></g>
<g fill="#F1ADC1FF" stroke="#F1ADC1FF">
<path d="M 55.404 12.844 C 55.797 13.480 57.104 14.000 58.309 14.001 C 62.827 14.002 72.949 19.873 79.004 26.004 C 85.250 32.328 88.432 33.260 85.266 27.838 C 82.751 23.532 76.911 18.495 70.899 15.449 C 65.369 12.646 54.112 10.754 55.404 12.844 "/></g>
<g fill="#E34078FF" stroke="#E34078FF">
<path d="M 126.854 132.748 C 126.659 133.229 122.900 136.700 118.500 140.463 C 107.660 149.733 107.529 149.863 108.266 150.599 C 108.622 150.955 110.750 149.391 112.995 147.123 C 115.240 144.855 117.237 143.000 117.433 143.000 C 118.487 143.000 128.366 133.033 127.837 132.503 C 127.491 132.158 127.049 132.268 126.854 132.748 "/></g>
<g fill="#E34078FF" stroke="#E34078FF">
<path d="M 65.437 171.750 C 67.258 173.765 69.323 175.000 70.871 175.000 C 74.109 175.000 82.178 171.097 81.433 169.891 C 81.118 169.381 79.579 169.876 78.014 170.990 C 72.999 174.561 69.344 174.678 65.696 171.386 L 62.500 168.500 65.437 171.750 "/></g>
<g fill="#E34078FF" stroke="#E34078FF">
<path d="M 89.719 163.425 C 87.090 165.116 84.615 167.057 84.219 167.738 C 83.804 168.452 84.189 168.367 85.131 167.535 C 86.028 166.743 87.051 166.384 87.404 166.737 C 87.757 167.090 88.736 166.394 89.580 165.190 C 90.423 163.985 91.743 163.000 92.513 163.000 C 93.283 163.000 94.045 162.404 94.206 161.675 C 94.373 160.922 92.434 161.678 89.719 163.425 "/></g>
<g fill="#E34078FF" stroke="#E34078FF">
<path d="M 103.045 153.467 C 99.087 156.387 99.347 156.671 103.897 154.402 C 105.659 153.522 106.961 152.383 106.790 151.869 C 106.618 151.355 104.933 152.074 103.045 153.467 "/></g>
<g fill="#F1ADC1FF" stroke="#F1ADC1FF">
<path d="M 82.883 90.439 C 82.544 90.784 82.627 92.514 83.069 94.284 C 83.871 97.499 83.872 97.499 83.686 93.655 C 83.584 91.541 83.222 90.093 82.883 90.439 "/></g>
<g fill="#C93652FF" stroke="#C93652FF">
<path d="M 7.573 94.000 C 7.941 95.375 8.659 97.175 9.169 98.000 C 9.813 99.042 9.892 98.737 9.427 97.000 C 9.059 95.625 8.341 93.825 7.831 93.000 C 7.187 91.958 7.108 92.263 7.573 94.000 "/></g>
<g fill="#F1ADC1FF" stroke="#F1ADC1FF">
<path d="M 69.500 61.435 L 66.500 64.564 69.500 61.435 L 72.500 58.305 69.500 61.435 "/></g>
<g fill="#F1ADC1FF" stroke="#F1ADC1FF">
<path d="M 86.500 57.732 C 87.600 58.007 88.831 58.742 89.235 59.366 C 89.701 60.086 89.975 59.861 89.985 58.750 C 89.996 57.476 89.252 57.032 87.250 57.116 C 85.142 57.205 84.967 57.349 86.500 57.732 "/></g>
<g fill="#F1ADC1FF" stroke="#F1ADC1FF">
<path d="M 101.833 92.842 C 101.573 94.461 101.828 94.716 102.992 94.001 C 104.122 93.305 104.203 92.803 103.324 91.924 C 102.446 91.046 102.085 91.268 101.833 92.842 "/></g>
<g fill="#F1ADC1FF" stroke="#F1ADC1FF">
<path d="M 118.000 62.710 C 118.000 63.249 118.990 64.547 120.200 65.595 L 122.400 67.500 120.200 64.615 C 118.990 63.028 118.000 62.171 118.000 62.710 "/></g>
<g fill="#F1ADC1FF" stroke="#F1ADC1FF">
<path d="M 75.500 63.410 L 73.500 65.567 75.500 63.410 L 77.500 61.253 75.500 63.410 "/></g>
<g fill="#C93652FF" stroke="#C93652FF">
<path d="M 189.710 61.681 C 189.302 62.330 189.468 63.171 190.080 63.549 C 190.781 63.983 191.056 63.546 190.823 62.368 C 190.573 61.106 190.212 60.883 189.710 61.681 "/></g>
<g fill="#F1ADC1FF" stroke="#F1ADC1FF">
<path d="M 52.000 99.888 L 50.500 101.563 52.000 99.888 L 53.500 98.212 52.000 99.888 "/></g>
<g fill="#F1ADC1FF" stroke="#F1ADC1FF">
<path d="M 60.000 99.000 L 62.000 101.000 60.000 99.000 L 58.000 97.000 60.000 99.000 "/></g>
<g fill="#F1ADC1FF" stroke="#F1ADC1FF">
<path d="M 77.000 91.888 L 75.500 93.563 77.000 91.888 L 78.500 90.212 77.000 91.888 "/></g>
<g fill="#F1ADC1FF" stroke="#F1ADC1FF">
<path d="M 143.000 77.000 L 145.000 79.000 143.000 77.000 L 141.000 75.000 143.000 77.000 "/></g>
<g fill="#E34078FF" stroke="#E34078FF">
<path d="M 97.250 157.793 C 96.563 157.998 96.006 158.692 96.014 159.333 C 96.022 160.026 96.530 159.874 97.264 158.959 C 98.247 157.733 98.244 157.495 97.250 157.793 "/></g>
<g fill="#FAE5EBFF" stroke="#FAE5EBFF">
<path d="M 156.500 24.500 L 158.000 26.000 156.500 24.500 L 155.000 23.000 156.500 24.500 "/></g>
<g fill="#FAE5EBFF" stroke="#FAE5EBFF">
<path d="M 117.000 13.047 C 116.010 13.656 115.925 13.975 116.750 13.985 C 117.438 13.993 118.113 13.578 118.250 13.062 C 118.404 12.485 117.924 12.479 117.000 13.047 "/></g>
<g fill="#F1ADC1FF" stroke="#F1ADC1FF">
<path d="M 142.378 95.378 L 141.500 96.256 142.378 95.378 L 143.256 94.500 142.378 95.378 "/></g>
<g fill="#F1ADC1FF" stroke="#F1ADC1FF">
<path d="M 80.378 94.378 L 79.500 95.256 80.378 94.378 L 81.256 93.500 80.378 94.378 "/></g>
<g fill="#F1ADC1FF" stroke="#F1ADC1FF">
<path d="M 112.500 93.500 L 114.000 95.000 112.500 93.500 L 111.000 92.000 112.500 93.500 "/></g>
<g fill="#F1ADC1FF" stroke="#F1ADC1FF">
<path d="M 52.378 92.378 L 51.500 93.256 52.378 92.378 L 53.256 91.500 52.378 92.378 "/></g>
<g fill="#F1ADC1FF" stroke="#F1ADC1FF">
<path d="M 135.378 91.378 L 134.500 92.256 135.378 91.378 L 136.256 90.500 135.378 91.378 "/></g>
<g fill="#F1ADC1FF" stroke="#F1ADC1FF">
<path d="M 105.378 83.378 L 104.500 84.256 105.378 83.378 L 106.256 82.500 105.378 83.378 "/></g>
<g fill="#F1ADC1FF" stroke="#F1ADC1FF">
<path d="M 47.378 74.378 L 46.500 75.256 47.378 74.378 L 48.256 73.500 47.378 74.378 "/></g>
<g fill="#F1ADC1FF" stroke="#F1ADC1FF">
<path d="M 35.378 61.378 L 34.500 62.256 35.378 61.378 L 36.256 60.500 35.378 61.378 "/></g>
<g fill="#F1ADC1FF" stroke="#F1ADC1FF">
<path d="M 77.422 55.126 C 76.910 55.955 77.224 55.963 78.613 55.157 C 79.651 54.554 79.964 54.047 79.309 54.030 C 78.654 54.014 77.805 54.507 77.422 55.126 "/></g>
<g fill="#E34078FF" stroke="#E34078FF">
<path d="M 54.500 160.500 L 56.000 162.000 54.500 160.500 L 53.000 159.000 54.500 160.500 "/></g>
</svg>
